<!DOCTYPE svg PUBLIC "-//W3C//DTD SVG 20010904//EN" "http://www.w3.org/TR/2001/REC-SVG-20010904/DTD/svg10.dtd">
<svg version="1.0" xmlns="http://www.w3.org/2000/svg" width="361px" height="361px" viewBox="0 0 3610 3610" preserveAspectRatio="xMidYMid meet">
<g id="layer101" fill="#961a44" stroke="none">
 <path d="M1800 3081 l0 -430 184 -110 c101 -61 187 -111 191 -111 3 0 26 -13 50 -30 24 -16 48 -30 54 -30 6 0 11 -4 11 -10 0 -5 5 -10 11 -10 8 0 293 -167 450 -265 84 -52 107 -54 73 -7 -23 30 -85 119 -187 267 -38 55 -77 110 -86 121 -9 12 -22 30 -29 40 -7 11 -35 51 -62 89 -27 39 -55 78 -62 88 -7 11 -20 27 -28 37 -8 11 -35 49 -60 85 -25 36 -78 111 -117 168 -40 56 -79 110 -85 120 -7 11 -20 27 -28 37 -8 11 -35 49 -60 85 -25 36 -52 74 -60 85 -8 10 -21 26 -28 37 -7 10 -35 49 -62 88 -28 38 -50 73 -50 77 0 5 -4 8 -10 8 -7 0 -10 -150 -10 -429z"/>
 <path d="M1615 3244 c-16 -20 -55 -74 -85 -118 -30 -45 -59 -86 -65 -92 -5 -7 -18 -22 -27 -35 -9 -13 -41 -58 -70 -99 -29 -41 -83 -118 -118 -170 -36 -52 -69 -100 -75 -106 -5 -6 -16 -20 -23 -30 -19 -28 -110 -157 -124 -176 -7 -9 -19 -25 -26 -35 -7 -10 -41 -58 -76 -108 -34 -49 -84 -121 -110 -158 -27 -37 -46 -71 -42 -74 3 -3 89 44 190 105 102 62 189 112 195 112 5 0 11 3 13 8 4 9 57 41 81 49 9 3 17 9 17 14 0 5 5 9 11 9 6 0 75 38 153 85 l143 86 12 127 c12 133 32 326 51 499 6 57 10 112 8 124 -3 19 -6 17 -33 -17z"/>
 <path d="M1800 1281 c0 -644 3 -1171 8 -1171 4 0 21 23 37 51 45 77 47 79 95 159 24 41 48 76 52 78 5 2 8 9 8 15 0 7 16 36 35 64 19 29 35 57 35 63 0 5 5 10 10 10 6 0 10 6 10 13 0 7 12 30 26 51 15 21 32 48 38 60 34 65 241 402 248 404 4 2 8 8 8 13 0 5 33 63 73 130 39 66 80 135 91 152 10 18 77 130 149 250 71 119 128 219 126 221 -20 15 -229 136 -237 136 -6 0 -12 4 -14 8 -3 8 -91 62 -121 74 -10 4 -38 21 -62 38 -24 16 -46 30 -48 30 -3 0 -87 50 -186 110 -100 61 -184 110 -186 110 -3 0 -29 16 -58 35 -28 19 -57 35 -64 35 -6 0 -13 4 -15 9 -1 5 -15 13 -30 16 l-28 7 0 -1171z"/>
 <path d="M1500 2280 c-14 -11 -28 -20 -32 -20 -4 0 -88 -49 -188 -110 -99 -60 -183 -110 -185 -110 -3 0 -29 -16 -58 -35 -28 -19 -57 -35 -64 -35 -7 0 -13 -4 -13 -9 0 -5 -8 -11 -17 -14 -18 -6 -73 -37 -83 -47 -3 -3 -23 -15 -45 -26 -22 -12 -41 -29 -43 -37 -3 -16 155 -289 170 -295 5 -2 8 -8 8 -13 0 -6 97 -173 217 -371 186 -311 217 -359 225 -339 4 12 15 93 23 179 22 215 43 421 55 522 5 47 16 153 25 235 37 355 46 443 52 493 6 59 -4 66 -47 32z"/>
 </g>

</svg>