<?xml version="1.0" encoding="UTF-8"?>
<svg version="1.1" xmlns="http://www.w3.org/2000/svg" width="128" height="128">
<path d="M0 0 C3.27329334 2.58818543 6.14837346 5.04299321 8.75 8.3125 C9.4925 9.199375 10.235 10.08625 11 11 C11.66 11 12.32 11 13 11 C14.66877721 9.31194368 14.66877721 9.31194368 16.375 7.1875 C18.7171919 4.35520187 20.98186585 2.10737561 24 0 C32.25 9 40.5 18 48.75 27 C49.20407227 27.49532227 49.65814453 27.99064453 50.12597656 28.50097656 C51.03950603 29.49761319 51.95291815 30.49435741 52.86621094 31.49121094 C55.20490938 34.04358061 57.54582914 36.5938548 59.890625 39.140625 C65.00184097 44.69633221 70.0712854 50.28067248 75 56 C71.16597661 64.30102235 63.4519101 70.75732426 57.26123047 77.36401367 C53.21409525 81.6856493 49.22586872 86.05313203 45.28125 90.46875 C42.50702838 93.5469959 39.69205768 96.58600022 36.875 99.625 C32.50049227 104.34646096 28.19178209 109.11450749 24 114 C23.56429687 113.62488281 23.12859375 113.24976562 22.6796875 112.86328125 C18.81392401 109.54140223 14.92342352 106.25357073 11 103 C7.7 106.63 4.4 110.26 1 114 C-5.14555681 109.08355455 -10.31624602 103.43034679 -15.56054688 97.59667969 C-17.85713389 95.04924429 -20.17935708 92.52550311 -22.5 90 C-23.41679944 89.00012172 -24.33346589 88.0001215 -25.25 87 C-25.70375 86.505 -26.1575 86.01 -26.625 85.5 C-28 84 -29.375 82.5 -30.75 81 C-31.20455566 80.50435547 -31.65911133 80.00871094 -32.12744141 79.49804688 C-33.0369155 78.50542271 -33.94545662 77.51194287 -34.85302734 76.51757812 C-37.2474896 73.89667086 -39.65998754 71.29588339 -42.1015625 68.71875 C-42.60751953 68.17992188 -43.11347656 67.64109375 -43.63476562 67.0859375 C-44.60412835 66.05432212 -45.57912245 65.02795979 -46.56054688 64.0078125 C-50.93722089 59.32729257 -50.93722089 59.32729257 -51 56 C-50.05859375 54.38671875 -50.05859375 54.38671875 -48.4375 52.6875 C-47.79425781 51.99785156 -47.15101562 51.30820312 -46.48828125 50.59765625 C-45.66714844 49.74042969 -44.84601562 48.88320313 -44 48 C-42.90850123 46.83357776 -41.81879556 45.66547613 -40.73046875 44.49609375 C-38.29873125 41.88380651 -35.86193085 39.27639262 -33.421875 36.671875 C-29.98946857 32.99938769 -26.62304359 29.27150974 -23.2734375 25.5234375 C-20.54162452 22.49121897 -17.77288169 19.49462544 -15 16.5 C-9.94929166 11.04462357 -4.95478506 5.54285299 0 0 Z M0 15 C-5.4882865 20.39896538 -10.92252142 25.77582608 -15.921875 31.63671875 C-19.46629719 35.66749962 -23.16768971 39.55413043 -26.85083008 43.45800781 C-30.69009157 47.54248838 -34.38040372 51.71929025 -38 56 C-36.41209351 59.32764294 -34.63178158 61.71493319 -32.125 64.4375 C-31.320625 65.31535156 -30.51625 66.19320312 -29.6875 67.09765625 C-28.800625 68.05542969 -27.91375 69.01320312 -27 70 C-26.04140744 71.04012574 -25.08308114 72.08049691 -24.125 73.12109375 C-22.10823476 75.30986455 -20.0882496 77.4956074 -18.06640625 79.6796875 C-16.02515209 81.88655407 -13.99147606 84.10001108 -11.96484375 86.3203125 C-11.47677246 86.85479004 -10.98870117 87.38926758 -10.48583984 87.93994141 C-9.14725883 89.40709967 -7.80991551 90.8753869 -6.47265625 92.34375 C-4.03661518 94.96066616 -1.54349728 97.48835331 1 100 C2.32 98.02 3.64 96.04 5 94 C4.26136719 93.20078125 3.52273437 92.4015625 2.76171875 91.578125 C-7.53926763 80.42813741 -17.79871393 69.24133041 -28 58 C-26.66000502 54.993182 -25.20154709 53.00237391 -22.8125 50.75 C-20.40558542 48.41185441 -18.12027956 46.04842283 -15.9375 43.5 C-13.5421187 40.70995634 -11.07638616 38.00377349 -8.55078125 35.33203125 C-7.61600952 34.34203125 -7.61600952 34.34203125 -6.66235352 33.33203125 C-5.4074922 32.00684131 -4.14897739 30.68509948 -2.88647461 29.3671875 C0.20949797 26.09385257 2.87855878 23.01997739 5 19 C2.525 17.02 2.525 17.02 0 15 Z M22 15 C20.36323743 16.9600281 20.36323743 16.9600281 19 19 C20.3905328 22.11159151 22.02337417 24.30433009 24.37890625 26.7578125 C25.04881592 27.46123779 25.71872559 28.16466309 26.40893555 28.8894043 C27.11961182 29.62715088 27.83028809 30.36489746 28.5625 31.125 C30.01899731 32.65421667 31.47473103 34.184161 32.9296875 35.71484375 C33.6319043 36.45202637 34.33412109 37.18920898 35.05761719 37.94873047 C38.79050178 41.8908743 42.40552268 45.93152568 46 50 C46.55558594 50.59167969 47.11117187 51.18335938 47.68359375 51.79296875 C49.125 53.375 49.125 53.375 51 56 C50.74397331 59.8884053 48.61368342 61.66913902 45.875 64.25 C42.44947251 67.56295147 39.25641286 70.93071745 36.16796875 74.5546875 C34.3133069 76.64661239 32.41935599 78.674597 30.48828125 80.6953125 C29.85494873 81.36095215 29.22161621 82.0265918 28.5690918 82.71240234 C27.28872715 84.05434926 26.0025525 85.39078045 24.71020508 86.72119141 C24.11747803 87.34429199 23.52475098 87.96739258 22.9140625 88.609375 C22.3773291 89.16592773 21.8405957 89.72248047 21.28759766 90.29589844 C19.83294341 92.22109499 19.28724198 93.60980232 19 96 C20.35444301 97.77190909 20.35444301 97.77190909 22 99 C28.66331881 96.0094909 33.10933258 89.92754499 37.7890625 84.49609375 C40.77513885 81.12488741 43.8565387 77.8468866 46.9375 74.5625 C52.04593125 69.11499265 57.08935317 63.62741826 62 58 C60.6094672 54.88840849 58.97662583 52.69566991 56.62109375 50.2421875 C55.95166748 49.53924561 55.28224121 48.83630371 54.5925293 48.11206055 C53.88136963 47.37383057 53.17020996 46.63560059 52.4375 45.875 C50.97316667 44.33799343 49.50961929 42.80023767 48.046875 41.26171875 C47.34369141 40.52356934 46.64050781 39.78541992 45.91601562 39.02490234 C43.63406372 36.61326764 41.40024997 34.16271119 39.1875 31.6875 C38.51976563 30.94113281 37.85203125 30.19476563 37.1640625 29.42578125 C35.97433466 28.09216935 34.78488238 26.75831078 33.59667969 25.42333984 C32.0906081 23.73570242 30.57713676 22.05495038 29.0625 20.375 C28.58901123 19.84092529 28.11552246 19.30685059 27.62768555 18.7565918 C26.45948878 17.46603072 25.23406059 16.22773208 24 15 C23.34 15 22.68 15 22 15 Z M11 27 C10.33355469 27.72703125 9.66710937 28.4540625 8.98046875 29.203125 C8.54033447 29.68322021 8.1002002 30.16331543 7.64672852 30.65795898 C6.66393801 31.73019871 5.68135748 32.80263093 4.69897461 33.87524414 C2.12445152 36.68563892 -0.45326134 39.4929443 -3.0390625 42.29296875 C-3.52528076 42.82051758 -4.01149902 43.34806641 -4.51245117 43.89160156 C-5.87055594 45.36487883 -7.23016123 46.83677246 -8.58984375 48.30859375 C-10.82579017 50.80546099 -12.93545105 53.36063464 -15 56 C-13.64827153 60.08379341 -11.93063758 62.37683519 -8.8125 65.3125 C-4.624195 69.36030276 -0.78515324 73.57840506 3 78 C4.43149905 79.67182371 5.86905444 81.33847993 7.3125 83 C7.96863281 83.763125 8.62476562 84.52625 9.30078125 85.3125 C10.8373854 87.23488528 10.8373854 87.23488528 13 87 C14.33252309 85.72126041 14.33252309 85.72126041 15.75 83.9375 C19.97861651 78.95058727 24.4485833 74.20904394 28.93652344 69.45678711 C32.43133093 65.73930935 35.77542995 61.95466138 39 58 C37.36015664 53.96346249 34.51642798 51.10908004 31.5625 48 C30.48138989 46.84801364 29.40067005 45.69566091 28.3203125 44.54296875 C27.77020508 43.95821777 27.22009766 43.3734668 26.65332031 42.77099609 C25.04187507 41.04485554 23.45083809 39.30242518 21.8671875 37.55078125 C21.37404053 37.00615234 20.88089355 36.46152344 20.37280273 35.90039062 C19.00661144 34.38895871 17.64193691 32.87615619 16.27734375 31.36328125 C14.0381508 28.8707062 14.0381508 28.8707062 11 27 Z " fill="#3290BA" transform="translate(52,7)"/>
<path d="M0 0 C3.15272163 1.38431137 5.16290591 2.96472806 7.49609375 5.484375 C8.13740234 6.17273437 8.77871094 6.86109375 9.43945312 7.5703125 C10.09880859 8.28960937 10.75816406 9.00890625 11.4375 9.75 C12.09298828 10.45382813 12.74847656 11.15765625 13.42382812 11.8828125 C17.07679134 15.82522817 20.60201449 19.83599463 24 24 C21.81256258 28.76028049 18.50306111 32.15385559 15 36 C14.52079102 36.52964355 14.04158203 37.05928711 13.54785156 37.60498047 C11.95305627 39.36579702 10.35252893 41.12122061 8.75 42.875 C8.23066895 43.44661865 7.71133789 44.0182373 7.17626953 44.60717773 C4.89063164 47.09126033 2.82254482 49.11830345 0 51 C-0.51046875 50.42894531 -1.0209375 49.85789063 -1.546875 49.26953125 C-2.27390625 48.45871094 -3.0009375 47.64789063 -3.75 46.8125 C-4.55953125 45.90886719 -5.3690625 45.00523438 -6.203125 44.07421875 C-8.18373893 41.88078198 -10.19876369 39.72449404 -12.234375 37.58203125 C-12.77610352 37.00799561 -13.31783203 36.43395996 -13.87597656 35.8425293 C-14.9449105 34.7120497 -16.01965675 33.5870332 -17.10058594 32.46801758 C-22.02075413 27.24456237 -22.02075413 27.24456237 -22 24 C-20.98828125 22.31640625 -20.98828125 22.31640625 -19.3125 20.5625 C-18.67441406 19.87929688 -18.03632812 19.19609375 -17.37890625 18.4921875 C-16.59386719 17.66976562 -15.80882812 16.84734375 -15 16 C-13.98601124 14.90052669 -12.97444889 13.79881249 -11.96484375 12.6953125 C-3.18472159 3.10837553 -3.18472159 3.10837553 0 0 Z " fill="#28CEDB" transform="translate(63,39)"/>
<path d="M0 0 C3.15272163 1.38431137 5.16290591 2.96472806 7.49609375 5.484375 C8.13740234 6.17273437 8.77871094 6.86109375 9.43945312 7.5703125 C10.09880859 8.28960937 10.75816406 9.00890625 11.4375 9.75 C12.09298828 10.45382813 12.74847656 11.15765625 13.42382812 11.8828125 C17.07679134 15.82522817 20.60201449 19.83599463 24 24 C21.81256258 28.76028049 18.50306111 32.15385559 15 36 C14.52079102 36.52964355 14.04158203 37.05928711 13.54785156 37.60498047 C11.95305627 39.36579702 10.35252893 41.12122061 8.75 42.875 C8.23066895 43.44661865 7.71133789 44.0182373 7.17626953 44.60717773 C4.89063164 47.09126033 2.82254482 49.11830345 0 51 C-0.51046875 50.42894531 -1.0209375 49.85789063 -1.546875 49.26953125 C-2.27390625 48.45871094 -3.0009375 47.64789063 -3.75 46.8125 C-4.55953125 45.90886719 -5.3690625 45.00523438 -6.203125 44.07421875 C-8.18373893 41.88078198 -10.19876369 39.72449404 -12.234375 37.58203125 C-12.77610352 37.00799561 -13.31783203 36.43395996 -13.87597656 35.8425293 C-14.9449105 34.7120497 -16.01965675 33.5870332 -17.10058594 32.46801758 C-22.02075413 27.24456237 -22.02075413 27.24456237 -22 24 C-20.98828125 22.31640625 -20.98828125 22.31640625 -19.3125 20.5625 C-18.67441406 19.87929688 -18.03632812 19.19609375 -17.37890625 18.4921875 C-16.59386719 17.66976562 -15.80882812 16.84734375 -15 16 C-13.98601124 14.90052669 -12.97444889 13.79881249 -11.96484375 12.6953125 C-3.18472159 3.10837553 -3.18472159 3.10837553 0 0 Z M0 4 C-2.06446213 6.20652615 -4.12660234 8.41514857 -6.1875 10.625 C-6.76564453 11.24246094 -7.34378906 11.85992187 -7.93945312 12.49609375 C-11.42275386 16.23523013 -14.76687191 20.04231025 -18 24 C-16.47147075 27.53675651 -14.3583611 29.99564746 -11.75 32.8125 C-8.08291494 36.81134073 -4.50851407 40.86175264 -1 45 C4.82763425 44.17123937 8.17447831 39.08226811 12 35 C12.70640625 34.26265625 13.4128125 33.5253125 14.140625 32.765625 C18.24197583 28.64392654 18.24197583 28.64392654 19 23 C17.75710282 21.34661659 17.75710282 21.34661659 16 19.875 C12.15915707 16.28346127 9.05045432 12.33390361 5.89453125 8.13671875 C3.98683831 5.98515579 2.5653877 5.18133657 0 4 Z " fill="#475A99" transform="translate(63,39)"/>
</svg>
